name D:\school\WTK\thesis\model\3dpredictsim\Results\MidTarsalJoint\Fal_s1_bCst_PF_Gefen2002_ls150_MT_nl_Gefen2002_MTP_T1_spx10_PIM_w1e+03_w5e+02_ig23.mot
datacolumns 128
datarows 4
range 0.00000000 0.03149186
endheader
time	pelvis_tilt	pelvis_list	pelvis_rotation	pelvis_tx	pelvis_ty	pelvis_tz	hip_flexion_l	hip_adduction_l	hip_rotation_l	hip_flexion_r	hip_adduction_r	hip_rotation_r	knee_angle_l	knee_angle_r	ankle_angle_l	ankle_angle_r	subtalar_angle_l	subtalar_angle_r	mtj_angle_l	mtj_angle_r	mtp_angle_l	mtp_angle_r	lumbar_extension	lumbar_bending	lumbar_rotation	arm_flex_l	arm_add_l	arm_rot_l	arm_flex_r	arm_add_r	arm_rot_r	elbow_flex_l	elbow_flex_r	pro_sup_l	pro_sup_r	glut_med1_l/activation	glut_med2_l/activation	glut_med3_l/activation	glut_min1_l/activation	glut_min2_l/activation	glut_min3_l/activation	semimem_l/activation	semiten_l/activation	bifemlh_l/activation	bifemsh_l/activation	sar_l/activation	add_long_l/activation	add_brev_l/activation	add_mag1_l/activation	add_mag2_l/activation	add_mag3_l/activation	tfl_l/activation	pect_l/activation	grac_l/activation	glut_max1_l/activation	glut_max2_l/activation	glut_max3_l/activation	iliacus_l/activation	psoas_l/activation	quad_fem_l/activation	gem_l/activation	peri_l/activation	rect_fem_l/activation	vas_med_l/activation	vas_int_l/activation	vas_lat_l/activation	med_gas_l/activation	lat_gas_l/activation	soleus_l/activation	tib_post_l/activation	flex_dig_l/activation	flex_hal_l/activation	tib_ant_l/activation	per_brev_l/activation	per_long_l/activation	per_tert_l/activation	ext_dig_l/activation	ext_hal_l/activation	ercspn_l/activation	intobl_l/activation	extobl_l/activation	glut_med1_r/activation	glut_med2_r/activation	glut_med3_r/activation	glut_min1_r/activation	glut_min2_r/activation	glut_min3_r/activation	semimem_r/activation	semiten_r/activation	bifemlh_r/activation	bifemsh_r/activation	sar_r/activation	add_long_r/activation	add_brev_r/activation	add_mag1_r/activation	add_mag2_r/activation	add_mag3_r/activation	tfl_r/activation	pect_r/activation	grac_r/activation	glut_max1_r/activation	glut_max2_r/activation	glut_max3_r/activation	iliacus_r/activation	psoas_r/activation	quad_fem_r/activation	gem_r/activation	peri_r/activation	rect_fem_r/activation	vas_med_r/activation	vas_int_r/activation	vas_lat_r/activation	med_gas_r/activation	lat_gas_r/activation	soleus_r/activation	tib_post_r/activation	flex_dig_r/activation	flex_hal_r/activation	tib_ant_r/activation	per_brev_r/activation	per_long_r/activation	per_tert_r/activation	ext_dig_r/activation	ext_hal_r/activation	ercspn_r/activation	intobl_r/activation	extobl_r/activation	
          0.00000000	         -2.92214361	         -0.44645858	          4.77378263	          0.00000000	          0.93407997	         -0.00182043	        -11.94570275	         -0.10977433	          7.68239924	         28.33732191	          2.58571291	          1.81806146	        -18.04567271	        -17.47989478	         -2.53590067	          2.05299799	         18.88139349	         -2.92964151	          6.92081554	        -15.21017208	          6.95803933	         -2.50997509	          0.32295206	         -0.84918586	         -1.18846399	          2.57953236	        -13.47051178	         11.79786956	         -8.25829699	        -13.45055699	          8.47669218	         27.55917317	         16.99043335	         86.51662706	         86.51662706	          0.17412851	          0.08558397	          0.08110200	          0.17313938	          0.13158585	          0.09015004	          0.05001495	          0.05000060	          0.05000068	          0.05000081	          0.08110180	          0.05000046	          0.05000116	          0.05000142	          0.05000459	          0.05000173	          0.19452695	          0.05000195	          0.05000310	          0.05008664	          0.05011843	          0.05299323	          0.18353584	          0.50292312	          0.06902624	          0.06902906	          0.06902621	          0.18409330	          0.13420556	          0.13056475	          0.12978520	          0.29432881	          0.34535752	          0.21751695	          0.17062712	          0.07020191	          0.12163463	          0.05000000	          0.25001229	          0.20315802	          0.05874580	          0.10833427	          0.05874781	          0.05000002	          0.07672061	          0.07917176	          0.05000031	          0.05000101	          0.05000035	          0.05874761	          0.05419747	          0.05000052	          0.05000037	          0.05000042	          0.15861915	          0.05000039	          0.05000038	          0.09528667	          0.20066724	          0.27521378	          0.19834090	          0.12928559	          0.05000053	          0.05727382	          0.09006914	          0.05000049	          0.05951838	          0.13928900	          0.08110145	          0.07493636	          0.44470892	          0.12901222	          0.05000163	          0.06827347	          0.09868406	          0.10458150	          0.10158251	          0.05000006	          0.05000013	          0.05000002	          0.13485882	          0.05000096	          0.05000093	          0.47989573	          0.27321080	          0.15769474	          0.33364727	          0.46841932	          0.12089750	          0.05000002	          0.09529172	          0.08658899	
          0.01049729	         -2.91132612	         -0.47030814	          4.89776544	          0.01590810	          0.93337091	         -0.00151216	        -12.14079798	         -0.27135255	          7.65732756	         27.82937374	          2.85649616	          1.97838121	        -19.17607231	        -18.19520237	         -3.16699102	          1.72584794	         19.25554724	         -3.37216308	          5.05053772	        -14.74027813	          9.94743754	         -2.43942291	          0.51375157	         -0.66560407	         -1.22290159	          2.31127847	        -13.49018221	         12.01864261	         -8.99627545	        -13.46046639	          8.43850669	         28.21592662	         16.82110361	         86.51662706	         86.51662706	          0.22944067	          0.07284028	          0.06902567	          0.14735876	          0.11199240	          0.07672647	          0.05000398	          0.05000223	          0.05000312	          0.05000069	          0.06902636	          0.09063069	          0.12797492	          0.05874918	          0.05874427	          0.06865404	          0.16556134	          0.06904966	          0.05874828	          0.05000519	          0.05000269	          0.05000329	          0.15620680	          0.46810993	          0.05874819	          0.05875063	          0.05874801	          0.15668119	          0.11423389	          0.11144694	          0.11195972	          0.25050274	          0.30350327	          0.18869430	          0.15726060	          0.06091213	          0.10811137	          0.19962943	          0.26114979	          0.20206934	          0.05000008	          0.09220294	          0.05000011	          0.05202441	          0.06529666	          0.06902624	          0.19151739	          0.05000013	          0.05000052	          0.05000014	          0.05000013	          0.05000037	          0.06949075	          0.08431405	          0.13632295	          0.05000106	          0.06902582	          0.08109826	          0.17078739	          0.23423374	          0.16880784	          0.15702718	          0.05000043	          0.06902464	          0.07666074	          0.09749420	          0.14578332	          0.16078497	          0.06902535	          0.06377816	          0.37849034	          0.10980213	          0.09412598	          0.05810734	          0.08398976	          0.08900905	          0.08645661	          0.05373245	          0.05412255	          0.05234007	          0.15978558	          0.05000095	          0.05000084	          0.40845717	          0.23252939	          0.13421366	          0.28396630	          0.48869110	          0.10289554	          0.05000002	          0.08110257	          0.07369561	
          0.02099457	         -2.89710276	         -0.51860470	          4.99903809	          0.03186299	          0.93251280	         -0.00120842	        -12.21019559	         -0.42587060	          7.62594639	         27.29642541	          3.10373302	          2.16849233	        -20.52599719	        -19.07428513	         -3.78781489	          1.60180308	         19.55070717	         -3.84070087	          3.07700423	        -13.71753805	         12.99701651	         -2.33902629	          0.70435256	         -0.44951686	         -1.24845158	          2.02145547	        -13.51273996	         12.22673524	         -9.70852438	        -13.48207056	          8.43791695	         28.85095128	         16.63777426	         86.51662706	         86.51662706	          0.31112627	          0.06199421	          0.05874758	          0.24657009	          0.09531658	          0.06530180	          0.05000634	          0.05000027	          0.05000022	          0.05000066	          0.05874886	          0.07713561	          0.10891923	          0.05000156	          0.05000156	          0.05843180	          0.14090891	          0.05876841	          0.05000195	          0.05000607	          0.05000254	          0.05000071	          0.13294715	          0.48245451	          0.05000058	          0.05000297	          0.05000041	          0.13335084	          0.09722453	          0.09485259	          0.09528887	          0.21320204	          0.25831065	          0.16059708	          0.14411025	          0.05259174	          0.09201378	          0.17445091	          0.22226375	          0.17198056	          0.28068594	          0.19999128	          0.19214322	          0.08672262	          0.05557377	          0.05874801	          0.35621623	          0.34474277	          0.38583115	          0.44111677	          0.41287020	          0.35216670	          0.05914339	          0.07176040	          0.11602403	          0.05876368	          0.05874783	          0.06902254	          0.14535670	          0.19935583	          0.18231947	          0.18494040	          0.05000040	          0.05874815	          0.08288447	          0.23101093	          0.20290759	          0.19610087	          0.05874758	          0.05428152	          0.32213188	          0.09345236	          0.11198151	          0.05000002	          0.17116495	          0.18511749	          0.18031890	          0.05000003	          0.05000008	          0.05000000	          0.18806730	          0.05000042	          0.05000026	          0.49444422	          0.19790513	          0.11422894	          0.34805836	          0.46277193	          0.22545658	          0.06365269	          0.06902615	          0.06272209	
          0.03149186	         -2.88207567	         -0.58500326	          5.07502421	          0.04759905	          0.93178158	         -0.00087411	        -12.09795236	         -0.56492924	          7.59225151	         26.84271766	          3.36923602	          2.34814841	        -22.12449443	        -20.10499909	         -4.44132513	          1.64551187	         19.73948547	         -4.28618598	          1.01656038	        -12.12692603	         15.78655232	         -2.28202092	          0.87429286	         -0.21289183	         -1.26834686	          1.76843686	        -13.52814059	         12.44792650	        -10.33052840	        -13.49824786	          8.47571566	         29.38294492	         16.39134449	         86.51662706	         86.51662706	          0.26479862	          0.05276317	          0.05000015	          0.20985526	          0.08112375	          0.05557830	          0.05012667	          0.05000132	          0.05000203	          0.05000022	          0.05000144	          0.06565022	          0.13021466	          0.28260771	          0.11770026	          0.13155136	          0.11992722	          0.05001821	          0.05000096	          0.05000469	          0.05000495	          0.06807756	          0.11315090	          0.45674863	          0.05000021	          0.05000113	          0.05000042	          0.11349445	          0.08280846	          0.08110947	          0.08110387	          0.18145555	          0.21984738	          0.13668363	          0.13948107	          0.05000386	          0.07831335	          0.26292798	          0.18916797	          0.14637211	          0.23889102	          0.17338984	          0.16353265	          0.11639265	          0.05000004	          0.05000026	          0.47915653	          0.45897563	          0.40044170	          0.37543336	          0.38092726	          0.29972954	          0.05033680	          0.06107514	          0.09874768	          0.05001360	          0.05000033	          0.05874489	          0.12371265	          0.16967143	          0.17435565	          0.18885722	          0.05000172	          0.05000105	          0.07054281	          0.29754772	          0.24836100	          0.20628834	          0.05000004	          0.05000005	          0.27416541	          0.07953724	          0.09530719	          0.05040923	          0.31892448	          0.31183675	          0.28716338	          0.05000016	          0.05000040	          0.05000037	          0.24488661	          0.12776253	          0.08088093	          0.48757241	          0.16843643	          0.09721989	          0.29623140	          0.41074498	          0.21863708	          0.06135317	          0.05874794	          0.05338259	
